<mxfile host="app.diagrams.net" modified="2023-08-21T11:51:17.819Z" agent="Mozilla/5.0 (Windows NT 10.0; Win64; x64) AppleWebKit/537.36 (KHTML, like Gecko) Chrome/116.0.0.0 Safari/537.36" etag="7YkTOJ92VkP8hH09mxWW" version="21.6.8" type="device">
  <diagram id="C5RBs43oDa-KdzZeNtuy" name="Page-1">
    <mxGraphModel dx="794" dy="466" grid="1" gridSize="10" guides="1" tooltips="1" connect="1" arrows="1" fold="1" page="1" pageScale="1" pageWidth="827" pageHeight="1169" math="0" shadow="0">
      <root>
        <mxCell id="WIyWlLk6GJQsqaUBKTNV-0" />
        <mxCell id="WIyWlLk6GJQsqaUBKTNV-1" parent="WIyWlLk6GJQsqaUBKTNV-0" />
        <mxCell id="rG8ZW1DEl3MuE43WN6tO-0" value="Parents" style="swimlane;fontStyle=0;childLayout=stackLayout;horizontal=1;startSize=26;fillColor=none;horizontalStack=0;resizeParent=1;resizeParentMax=0;resizeLast=0;collapsible=1;marginBottom=0;whiteSpace=wrap;html=1;labelBackgroundColor=none;strokeColor=#E07A5F;fontColor=#393C56;rounded=1;" parent="WIyWlLk6GJQsqaUBKTNV-1" vertex="1">
          <mxGeometry x="120" y="140" width="150" height="126" as="geometry" />
        </mxCell>
        <mxCell id="rG8ZW1DEl3MuE43WN6tO-13" value="fathername:string&lt;br&gt;mothername :string&lt;br&gt;babyname :string&lt;br&gt;number of baby :int&lt;br&gt;phone no :int&lt;br&gt;address:string&amp;nbsp;" style="text;html=1;align=center;verticalAlign=middle;resizable=0;points=[];autosize=1;strokeColor=none;fillColor=none;labelBackgroundColor=none;fontColor=#393C56;rounded=1;" parent="rG8ZW1DEl3MuE43WN6tO-0" vertex="1">
          <mxGeometry y="26" width="150" height="100" as="geometry" />
        </mxCell>
        <mxCell id="rG8ZW1DEl3MuE43WN6tO-4" value="Babysitter" style="swimlane;fontStyle=0;childLayout=stackLayout;horizontal=1;startSize=26;fillColor=none;horizontalStack=0;resizeParent=1;resizeParentMax=0;resizeLast=0;collapsible=1;marginBottom=0;whiteSpace=wrap;html=1;labelBackgroundColor=none;strokeColor=#E07A5F;fontColor=#393C56;rounded=1;" parent="WIyWlLk6GJQsqaUBKTNV-1" vertex="1">
          <mxGeometry x="540" y="130" width="140" height="140" as="geometry" />
        </mxCell>
        <mxCell id="rG8ZW1DEl3MuE43WN6tO-5" value="name:string&lt;br&gt;email:string&amp;nbsp;&lt;br&gt;address: string&amp;nbsp;&lt;br&gt;phone : int&amp;nbsp;&lt;br&gt;experience: int&amp;nbsp;&lt;br&gt;age : int&amp;nbsp;&lt;br&gt;gender : string&amp;nbsp;" style="text;strokeColor=none;fillColor=none;align=left;verticalAlign=top;spacingLeft=4;spacingRight=4;overflow=hidden;rotatable=0;points=[[0,0.5],[1,0.5]];portConstraint=eastwest;whiteSpace=wrap;html=1;labelBackgroundColor=none;fontColor=#393C56;rounded=1;" parent="rG8ZW1DEl3MuE43WN6tO-4" vertex="1">
          <mxGeometry y="26" width="140" height="114" as="geometry" />
        </mxCell>
        <mxCell id="rG8ZW1DEl3MuE43WN6tO-8" value="Organization&amp;nbsp;" style="swimlane;fontStyle=0;childLayout=stackLayout;horizontal=1;startSize=26;fillColor=none;horizontalStack=0;resizeParent=1;resizeParentMax=0;resizeLast=0;collapsible=1;marginBottom=0;whiteSpace=wrap;html=1;labelBackgroundColor=none;strokeColor=#E07A5F;fontColor=#393C56;rounded=1;" parent="WIyWlLk6GJQsqaUBKTNV-1" vertex="1">
          <mxGeometry x="520" y="410" width="140" height="130" as="geometry" />
        </mxCell>
        <mxCell id="rG8ZW1DEl3MuE43WN6tO-9" value="orid:int" style="text;strokeColor=none;fillColor=none;align=left;verticalAlign=top;spacingLeft=4;spacingRight=4;overflow=hidden;rotatable=0;points=[[0,0.5],[1,0.5]];portConstraint=eastwest;whiteSpace=wrap;html=1;labelBackgroundColor=none;fontColor=#393C56;rounded=1;" parent="rG8ZW1DEl3MuE43WN6tO-8" vertex="1">
          <mxGeometry y="26" width="140" height="26" as="geometry" />
        </mxCell>
        <mxCell id="rG8ZW1DEl3MuE43WN6tO-11" value="&lt;br&gt;email :string&amp;nbsp;&lt;br&gt;contact: int&amp;nbsp;" style="text;strokeColor=none;fillColor=none;align=left;verticalAlign=top;spacingLeft=4;spacingRight=4;overflow=hidden;rotatable=0;points=[[0,0.5],[1,0.5]];portConstraint=eastwest;whiteSpace=wrap;html=1;labelBackgroundColor=none;fontColor=#393C56;rounded=1;" parent="rG8ZW1DEl3MuE43WN6tO-8" vertex="1">
          <mxGeometry y="52" width="140" height="52" as="geometry" />
        </mxCell>
        <mxCell id="rG8ZW1DEl3MuE43WN6tO-10" value="Address: string" style="text;strokeColor=none;fillColor=none;align=left;verticalAlign=top;spacingLeft=4;spacingRight=4;overflow=hidden;rotatable=0;points=[[0,0.5],[1,0.5]];portConstraint=eastwest;whiteSpace=wrap;html=1;labelBackgroundColor=none;fontColor=#393C56;rounded=1;" parent="rG8ZW1DEl3MuE43WN6tO-8" vertex="1">
          <mxGeometry y="104" width="140" height="26" as="geometry" />
        </mxCell>
        <mxCell id="a9-Hu6srhQtDdMjwfngX-1" value="Baby" style="swimlane;fontStyle=0;childLayout=stackLayout;horizontal=1;startSize=26;fillColor=none;horizontalStack=0;resizeParent=1;resizeParentMax=0;resizeLast=0;collapsible=1;marginBottom=0;whiteSpace=wrap;html=1;labelBackgroundColor=none;strokeColor=#E07A5F;fontColor=#393C56;rounded=1;" parent="WIyWlLk6GJQsqaUBKTNV-1" vertex="1">
          <mxGeometry x="100" y="400" width="140" height="120" as="geometry" />
        </mxCell>
        <mxCell id="a9-Hu6srhQtDdMjwfngX-2" value="name:string" style="text;strokeColor=none;fillColor=none;align=left;verticalAlign=top;spacingLeft=4;spacingRight=4;overflow=hidden;rotatable=0;points=[[0,0.5],[1,0.5]];portConstraint=eastwest;whiteSpace=wrap;html=1;labelBackgroundColor=none;fontColor=#393C56;rounded=1;" parent="a9-Hu6srhQtDdMjwfngX-1" vertex="1">
          <mxGeometry y="26" width="140" height="26" as="geometry" />
        </mxCell>
        <mxCell id="a9-Hu6srhQtDdMjwfngX-3" value="age:int&lt;br&gt;address:string" style="text;strokeColor=none;fillColor=none;align=left;verticalAlign=top;spacingLeft=4;spacingRight=4;overflow=hidden;rotatable=0;points=[[0,0.5],[1,0.5]];portConstraint=eastwest;whiteSpace=wrap;html=1;labelBackgroundColor=none;fontColor=#393C56;rounded=1;" parent="a9-Hu6srhQtDdMjwfngX-1" vertex="1">
          <mxGeometry y="52" width="140" height="38" as="geometry" />
        </mxCell>
        <mxCell id="a9-Hu6srhQtDdMjwfngX-4" value="gender:string" style="text;strokeColor=none;fillColor=none;align=left;verticalAlign=top;spacingLeft=4;spacingRight=4;overflow=hidden;rotatable=0;points=[[0,0.5],[1,0.5]];portConstraint=eastwest;whiteSpace=wrap;html=1;labelBackgroundColor=none;fontColor=#393C56;rounded=1;" parent="a9-Hu6srhQtDdMjwfngX-1" vertex="1">
          <mxGeometry y="90" width="140" height="30" as="geometry" />
        </mxCell>
        <mxCell id="a9-Hu6srhQtDdMjwfngX-7" value="" style="endArrow=diamondThin;endFill=0;endSize=24;html=1;rounded=1;entryX=0;entryY=0.5;entryDx=0;entryDy=0;labelBackgroundColor=none;strokeColor=#E07A5F;fontColor=default;exitX=1.005;exitY=0.897;exitDx=0;exitDy=0;exitPerimeter=0;" parent="WIyWlLk6GJQsqaUBKTNV-1" target="rG8ZW1DEl3MuE43WN6tO-9" edge="1" source="a9-Hu6srhQtDdMjwfngX-2">
          <mxGeometry width="160" relative="1" as="geometry">
            <mxPoint x="270" y="420" as="sourcePoint" />
            <mxPoint x="430" y="420" as="targetPoint" />
          </mxGeometry>
        </mxCell>
        <mxCell id="a9-Hu6srhQtDdMjwfngX-11" value="Relation" style="endArrow=open;html=1;endSize=12;startArrow=diamondThin;startSize=14;startFill=0;edgeStyle=orthogonalEdgeStyle;rounded=1;entryX=0.643;entryY=-0.033;entryDx=0;entryDy=0;entryPerimeter=0;labelBackgroundColor=none;strokeColor=#E07A5F;fontColor=default;" parent="WIyWlLk6GJQsqaUBKTNV-1" target="a9-Hu6srhQtDdMjwfngX-1" edge="1">
          <mxGeometry x="-0.0481" y="30" relative="1" as="geometry">
            <mxPoint x="190" y="270" as="sourcePoint" />
            <mxPoint x="350" y="270" as="targetPoint" />
            <mxPoint as="offset" />
          </mxGeometry>
        </mxCell>
        <mxCell id="a9-Hu6srhQtDdMjwfngX-12" value="0..n" style="edgeLabel;resizable=0;html=1;align=left;verticalAlign=top;labelBackgroundColor=none;fontColor=#393C56;rounded=1;" parent="a9-Hu6srhQtDdMjwfngX-11" connectable="0" vertex="1">
          <mxGeometry x="-1" relative="1" as="geometry">
            <mxPoint x="10" as="offset" />
          </mxGeometry>
        </mxCell>
        <mxCell id="a9-Hu6srhQtDdMjwfngX-13" value="1" style="edgeLabel;resizable=0;html=1;align=right;verticalAlign=top;labelBackgroundColor=none;fontColor=#393C56;rounded=1;" parent="a9-Hu6srhQtDdMjwfngX-11" connectable="0" vertex="1">
          <mxGeometry x="1" relative="1" as="geometry" />
        </mxCell>
        <mxCell id="a9-Hu6srhQtDdMjwfngX-14" value="Relation" style="endArrow=open;html=1;endSize=12;startArrow=diamondThin;startSize=14;startFill=0;edgeStyle=orthogonalEdgeStyle;rounded=1;entryX=0.581;entryY=-0.021;entryDx=0;entryDy=0;entryPerimeter=0;labelBackgroundColor=none;strokeColor=#E07A5F;fontColor=default;" parent="WIyWlLk6GJQsqaUBKTNV-1" target="rG8ZW1DEl3MuE43WN6tO-8" edge="1">
          <mxGeometry x="0.0328" y="29" relative="1" as="geometry">
            <mxPoint x="600" y="270" as="sourcePoint" />
            <mxPoint x="760" y="270" as="targetPoint" />
            <mxPoint as="offset" />
          </mxGeometry>
        </mxCell>
        <mxCell id="a9-Hu6srhQtDdMjwfngX-15" value="0..n" style="edgeLabel;resizable=0;html=1;align=left;verticalAlign=top;labelBackgroundColor=none;fontColor=#393C56;rounded=1;" parent="a9-Hu6srhQtDdMjwfngX-14" connectable="0" vertex="1">
          <mxGeometry x="-1" relative="1" as="geometry">
            <mxPoint x="10" y="-4" as="offset" />
          </mxGeometry>
        </mxCell>
        <mxCell id="a9-Hu6srhQtDdMjwfngX-17" value="0....n" style="text;html=1;align=center;verticalAlign=middle;resizable=0;points=[];autosize=1;strokeColor=none;fillColor=none;labelBackgroundColor=none;fontColor=#393C56;rounded=1;" parent="WIyWlLk6GJQsqaUBKTNV-1" vertex="1">
          <mxGeometry x="265" y="168" width="50" height="30" as="geometry" />
        </mxCell>
        <mxCell id="a9-Hu6srhQtDdMjwfngX-18" value="1...*" style="text;html=1;align=center;verticalAlign=middle;resizable=0;points=[];autosize=1;strokeColor=none;fillColor=none;labelBackgroundColor=none;fontColor=#393C56;rounded=1;" parent="WIyWlLk6GJQsqaUBKTNV-1" vertex="1">
          <mxGeometry x="480" y="168" width="40" height="30" as="geometry" />
        </mxCell>
        <mxCell id="a9-Hu6srhQtDdMjwfngX-19" value="1....*" style="text;html=1;align=center;verticalAlign=middle;resizable=0;points=[];autosize=1;strokeColor=none;fillColor=none;labelBackgroundColor=none;fontColor=#393C56;rounded=1;" parent="WIyWlLk6GJQsqaUBKTNV-1" vertex="1">
          <mxGeometry x="190" y="370" width="50" height="30" as="geometry" />
        </mxCell>
        <mxCell id="a9-Hu6srhQtDdMjwfngX-20" value="0...1" style="text;html=1;align=center;verticalAlign=middle;resizable=0;points=[];autosize=1;labelBackgroundColor=none;rounded=1;" parent="WIyWlLk6GJQsqaUBKTNV-1" vertex="1">
          <mxGeometry x="600" y="380" width="50" height="30" as="geometry" />
        </mxCell>
        <mxCell id="06ZvxAM85sy0v2Hq3_pz-0" value="" style="endArrow=diamondThin;endFill=0;endSize=24;html=1;rounded=1;labelBackgroundColor=none;strokeColor=#E07A5F;fontColor=default;exitX=1.005;exitY=0.897;exitDx=0;exitDy=0;exitPerimeter=0;" edge="1" parent="WIyWlLk6GJQsqaUBKTNV-1">
          <mxGeometry width="160" relative="1" as="geometry">
            <mxPoint x="270" y="199.5" as="sourcePoint" />
            <mxPoint x="540" y="200" as="targetPoint" />
            <Array as="points">
              <mxPoint x="409" y="199.5" />
            </Array>
          </mxGeometry>
        </mxCell>
      </root>
    </mxGraphModel>
  </diagram>
</mxfile>
